{
  "accessors": [
    {
      "bufferView": 2,
      "componentType": 5126,
      "count": 65532,
      "max": [
        0.6511200070381165,
        0.19889600574970245,
        1.4200090169906616
      ],
      "min": [
        -0.7395200133323669,
        -0.197503000497818,
        0.014976000413298607
      ],
      "type": "VEC3"
    },
    {
      "bufferView": 2,
      "byteOffset": 786384,
      "componentType": 5126,
      "count": 65532,
      "max": [
        0.9999594688415527,
        0.9999942779541016,
        0.9999877214431763
      ],
      "min": [
        -0.9999516010284424,
        -0.9999997615814209,
        -0.9999911785125732
      ],
      "type": "VEC3"
    },
    {
      "bufferView": 3,
      "componentType": 5126,
      "count": 65532,
      "max": [
        0.9999535083770752,
        0.9993195533752441,
        0.9999260306358337,
        1.0
      ],
      "min": [
        -0.9992554783821106,
        -0.9775694012641907,
        -0.9999992847442627,
        -1.0
      ],
      "type": "VEC4"
    },
    {
      "bufferView": 1,
      "componentType": 5126,
      "count": 65532,
      "max": [
        0.9692879915237427,
        0.9966679811477661
      ],
      "min": [
        0.0001539999939268455,
        3.400000059627928e-05
      ],
      "type": "VEC2"
    },
    {
      "bufferView": 0,
      "componentType": 5125,
      "count": 372831,
      "type": "SCALAR"
    },
    {
      "bufferView": 2,
      "byteOffset": 1572768,
      "componentType": 5126,
      "count": 25489,
      "max": [
        0.6496610045433044,
        0.19641900062561035,
        1.4186400175094604
      ],
      "min": [
        -0.7396309971809387,
        -0.19436800479888916,
        0.03344999998807907
      ],
      "type": "VEC3"
    },
    {
      "bufferView": 2,
      "byteOffset": 1878636,
      "componentType": 5126,
      "count": 25489,
      "max": [
        0.9999594688415527,
        0.9999951124191284,
        0.9999948740005493
      ],
      "min": [
        -0.9999516010284424,
        -0.9999991655349731,
        -0.9953906536102295
      ],
      "type": "VEC3"
    },
    {
      "bufferView": 3,
      "byteOffset": 1048512,
      "componentType": 5126,
      "count": 25489,
      "max": [
        0.9971869587898254,
        0.9833297729492188,
        0.9999428987503052,
        1.0
      ],
      "min": [
        -0.9985998868942261,
        -0.9711501598358154,
        -0.999990701675415,
        -1.0
      ],
      "type": "VEC4"
    },
    {
      "bufferView": 1,
      "byteOffset": 524256,
      "componentType": 5126,
      "count": 25489,
      "max": [
        0.9637860059738159,
        0.9999169707298279
      ],
      "min": [
        0.003208999987691641,
        0.00036100001307204366
      ],
      "type": "VEC2"
    },
    {
      "bufferView": 0,
      "byteOffset": 1491324,
      "componentType": 5125,
      "count": 122829,
      "type": "SCALAR"
    }
  ],
  "asset": {
    "extras": {
      "author": "Lassi Kaukonen (https://sketchfab.com/thesidekick)",
      "license": "CC-BY-4.0 (http://creativecommons.org/licenses/by/4.0/)",
      "source": "https://sketchfab.com/3d-models/oreo-pacman-7cc397480dbe4b52b85a465ffecf3feb",
      "title": "Oreo Pacman"
    },
    "generator": "Sketchfab-16.3.0",
    "version": "2.0"
  },
  "bufferViews": [
    {
      "buffer": 0,
      "byteLength": 1982640,
      "name": "floatBufferViews",
      "target": 34963
    },
    {
      "buffer": 0,
      "byteLength": 728168,
      "byteOffset": 1982640,
      "byteStride": 8,
      "name": "floatBufferViews",
      "target": 34962
    },
    {
      "buffer": 0,
      "byteLength": 2184504,
      "byteOffset": 2710808,
      "byteStride": 12,
      "name": "floatBufferViews",
      "target": 34962
    },
    {
      "buffer": 0,
      "byteLength": 1456336,
      "byteOffset": 4895312,
      "byteStride": 16,
      "name": "floatBufferViews",
      "target": 34962
    }
  ],
  "buffers": [
    {
      "byteLength": 6351648,
      "uri": "scene.bin"
    }
  ],
  "extensionsRequired": [
    "KHR_materials_pbrSpecularGlossiness"
  ],
  "extensionsUsed": [
    "KHR_materials_pbrSpecularGlossiness"
  ],
  "images": [
    {
      "uri": "textures/Oreo_pacman_diffuse.jpeg"
    },
    {
      "uri": "textures/Oreo_pacman_normal.png"
    },
    {
      "uri": "textures/Oreo_pacman_occlusion.png"
    }
  ],
  "materials": [
    {
      "doubleSided": true,
      "extensions": {
        "KHR_materials_pbrSpecularGlossiness": {
          "diffuseFactor": [
            1.0,
            1.0,
            1.0,
            1.0
          ],
          "diffuseTexture": {
            "index": 0
          },
          "glossinessFactor": 0.21330685167962593,
          "specularFactor": [
            0.007146288982560674,
            0.007146288982560674,
            0.007146288982560674
          ]
        }
      },
      "name": "Oreo_pacman",
      "normalTexture": {
        "index": 1
      },
      "occlusionTexture": {
        "index": 2
      }
    }
  ],
  "meshes": [
    {
      "name": "Object_0",
      "primitives": [
        {
          "attributes": {
            "NORMAL": 1,
            "POSITION": 0,
            "TANGENT": 2,
            "TEXCOORD_0": 3
          },
          "indices": 4,
          "material": 0,
          "mode": 4
        }
      ]
    },
    {
      "name": "Object_1",
      "primitives": [
        {
          "attributes": {
            "NORMAL": 6,
            "POSITION": 5,
            "TANGENT": 7,
            "TEXCOORD_0": 8
          },
          "indices": 9,
          "material": 0,
          "mode": 4
        }
      ]
    }
  ],
  "nodes": [
    {
      "children": [
        1
      ],
      "matrix": [
        1.0,
        0.0,
        0.0,
        0.0,
        0.0,
        2.220446049250313e-16,
        -1.0,
        0.0,
        0.0,
        1.0,
        2.220446049250313e-16,
        0.0,
        0.0,
        0.0,
        0.0,
        1.0
      ],
      "name": "Sketchfab_model"
    },
    {
      "children": [
        2,
        3
      ],
      "name": "Oreo_pacman_SF.obj.cleaner.materialmerger.gles"
    },
    {
      "mesh": 0,
      "name": "Object_2"
    },
    {
      "mesh": 1,
      "name": "Object_3"
    }
  ],
  "samplers": [
    {
      "magFilter": 9729,
      "minFilter": 9987,
      "wrapS": 10497,
      "wrapT": 10497
    }
  ],
  "scene": 0,
  "scenes": [
    {
      "name": "Sketchfab_Scene",
      "nodes": [
        0
      ]
    }
  ],
  "textures": [
    {
      "sampler": 0,
      "source": 0
    },
    {
      "sampler": 0,
      "source": 1
    },
    {
      "sampler": 0,
      "source": 2
    }
  ]
}
